<?xml version="1.0" encoding="utf-8"?>
<svg version="1.1" xmlns="http://www.w3.org/2000/svg" xmlns:xlink="http://www.w3.org/1999/xlink" x="0px"
	 y="0px" width="141.73px" height="141.73px" viewBox="0 0 141.73 141.73" style="enable-background:new 0 0 141.73 141.73;"
	 xml:space="preserve">
<style type="text/css">
	.st0{fill:#8E3F59;}
</style>
<g>
	<path class="st0" d="M141.22,23.82c-0.73-1.96-1.9-3.6-3.49-5c-3.13-2.74-6.84-4.29-10.79-5.29c-6.33-1.61-12.74-1.68-19.11-0.27
		c-4.42,0.97-8.62,2.57-12.06,5.69c-3.86,3.51-5.63,8.66-1.35,13.83c2.1,2.54,4.85,4.16,7.87,5.37c7.58,3.04,15.37,3.29,23.3,1.82
		c0.73-0.14,1.63-0.81,2.14-0.36c0.56,0.49,0.4,1.55,0.54,2.37c0.42,2.51,0.43,5.1,1.3,7.7c1.73-3.87,3.44-7.6,5.05-11.37
		c0.67-1.58,1.51-2.96,2.97-3.91c0.94-0.61,1.62-1.49,2.22-2.39C141.52,29.52,142.33,26.81,141.22,23.82z M137.6,32.4
		c-0.36,0.37-0.72,0.75-1.15,1.02c-1.6,1.01-2.48,2.51-3.17,4.22c-0.88,2.2-1.9,4.34-2.96,6.75c-0.65-1.72-0.56-3.35-0.89-4.92
		c-0.36-1.74-0.53-1.89-2.3-1.43c-7.13,1.81-14.25,1.82-21.32-0.23c-3.29-0.95-6.41-2.31-8.98-4.67c-0.28-0.26-0.57-0.52-0.84-0.8
		c-3.36-3.51-3.35-8.03,0.03-11.53c2.33-2.42,5.22-3.95,8.36-5c5.44-1.8,11.01-2.36,16.73-1.75c3.81,0.41,7.45,1.31,10.94,2.86
		c2.09,0.92,3.92,2.21,5.52,3.82C141.04,24.25,141.04,28.86,137.6,32.4z"/>
	<path class="st0" d="M118.24,116.74c-0.16-1.27-1.87-1.3-1.51,0.07c1.68,3.49,3.64,6.92,4.24,10.82c0.3,0.83,1.5,0.62,1.41-0.38
		C121.75,123.6,119.64,120.18,118.24,116.74z"/>
	<path class="st0" d="M34.51,116.67c0.01-0.51,0.16-1.33-0.52-1.46c-0.3-0.04-0.52,0.19-0.59,0.41c-0.45,3.39-0.64,6.72-0.21,10.66
		c0.04,0.42,0.31,1.19,0.85,1.05c0.39-0.19,0.64-0.64,0.51-1.09C34.12,123.05,34.27,119.86,34.51,116.67z"/>
	<path class="st0" d="M109.5,87.25c2.73,1.43,4.64-0.88,5.74-3.19c0.67,0.73,1.04,1.55,1.46,2.34c0.16,0.29,0.38,0.58,0.74,0.43
		c1.35-0.9-0.8-3.14-1.48-3.98c-0.66-0.69-1.71-0.36-2.14,0.57c-0.54,1.53-1.46,3.3-3.27,2.76c-1.36-0.26-2.72-1.46-2.85-2.52
		c-0.14-1.14,0.17-1.38,1.26-0.95c1.63,0.53,0.74-1.74-0.4-1.72C104.3,81.16,106.53,86.42,109.5,87.25z"/>
	<path class="st0" d="M117.96,66.79c-4.14,1.17,3.8,3.85,1.33,6.09c-0.14,0.21-0.31,0.43-0.08,0.68c2.06,1.02,2.25-2.48,1.18-3.54
		c-0.24-0.58-2.13-1.63-1.12-2.11c1.2-0.59,1.2-0.65,0.72-1.83c-0.57-1.42-1.36-2.75-1.77-4.24c-0.16-0.58-0.07-1.48-1.05-1.18
		c-0.84,0.26-0.31,0.96-0.2,1.47C116.88,63.21,119.59,66.9,117.96,66.79z"/>
	<path class="st0" d="M120.87,83.2c-0.83-0.42-3.03-1.93-3.75-0.73c-0.1,0.25-0.04,0.62,0.2,0.67
		C118.09,83.21,121.86,85.27,120.87,83.2z"/>
	<path class="st0" d="M115.08,19.61c-1.03,0.01-2.06,0.02-3.08,0c-0.57-0.01-1.07,0.09-1.11,0.75c-0.03,0.51,0.28,0.87,0.81,0.87
		c0.92,0,1,0.56,1,1.28c-0.02,2.44-0.01,4.87-0.01,7.34c-0.37-0.24-0.52-0.57-0.69-0.93c-1.12-2.37-2.27-4.72-3.39-7.09
		c-1.17-2.47-1.21-2.5-3.88-2.23c-0.06,0.01-0.13,0-0.19,0.01c-0.47,0.04-0.65,0.33-0.67,0.77c-0.01,0.41,0.05,0.85,0.56,0.83
		c0.9-0.03,1.04,0.44,1.03,1.2c-0.03,2.89-0.04,5.78,0,8.68c0.01,0.73-0.19,1.04-0.94,1.06c-0.58,0.02-0.67,0.48-0.65,0.98
		c0.02,0.56,0.31,0.79,0.85,0.79c1.16,0,2.31-0.01,3.47,0.03c0.55,0.02,0.88-0.25,0.94-0.74c0.05-0.46-0.13-0.88-0.62-1.07
		c-0.12-0.04-0.25-0.05-0.38-0.04c-0.6,0.02-0.74-0.32-0.74-0.86c0.01-2.43,0.01-4.86,0.01-7.36c0.67,0.45,0.78,1.12,1.05,1.67
		c1.11,2.3,2.16,4.63,3.25,6.94c0.22,0.46,0.44,0.94,0.77,1.31c0.68,0.77,1.54,0.57,1.95-0.39c0.24-0.56,0.19-1.13,0.19-1.71
		c0-3.08,0-6.17,0-9.25c0-0.58-0.09-1.17,0.79-1.24c0.63-0.05,0.56-0.59,0.52-1.04C115.86,19.66,115.49,19.61,115.08,19.61z"/>
	<path class="st0" d="M119.57,21.33c-0.69,1.2-1.1,2.46-1.27,3.78c-0.32,2.4-0.11,4.77,1.21,6.86c2.11,3.35,6.81,3.19,8.7-0.28
		c0.81-1.48,1.14-3.11,1.16-4.8c0.02-2.2-0.6-4.21-1.48-5.67C126.13,18.34,121.19,18.51,119.57,21.33z M126.53,30.83
		c-0.48,1.14-1.48,1.81-2.73,1.82c-1.25,0.01-2.2-0.68-2.76-1.79c-0.65-1.29-0.68-2.72-0.88-3.97c0.09-1.5,0.25-2.84,0.79-4.08
		c0.52-1.19,1.42-1.99,2.81-2c1.4-0.01,2.34,0.79,2.83,1.97C127.68,25.45,127.65,28.18,126.53,30.83z"/>
	<path class="st0" d="M138.75,121.45c-0.73-6.58-3.92-13.01-8.94-17.45c4.37-2.55-0.43-1.81,1.7-4.71c1.65-2.92,3.83-5.82-0.39-6.52
		c-0.65-0.18-0.77-0.34-0.23-0.81c1.08-1.06,5.26-4.97,4.43-6.4c-0.74-1.15-2.69-0.48-3.97-0.74c1.27-1.95,2.23-3.91,2.1-6.28
		c0.14-2.12-2.24-0.68-3.48-0.84c-1,0.12-0.74-0.94-0.6-1.58c1.26-4.42,0.65-8.78-0.39-13.13c-0.91-3.8-2.23-7.49-3.38-11.23
		c-0.92-2.87-3.61-13.72-6.98-6.85c-0.78,2.35-1.82-5-3.44-2.07c-2.51,5.53-4.5,11.31-6.11,17.18c-0.28,1.09-0.31,1.1-1.39,0.67
		c-3.68-1.43-7.02-3.45-10.05-5.98c-3.27-1.41,0.44,6.05,0.76,7.17c0.38,1.49-2.28,0.35-2.9-0.11c-3.24-1.69-5.63-4.41-8.11-7.02
		c-2.23-2.32-4.53-4.58-7.29-6.28c-1.92-1.19-2.48-0.88-2.5,1.36c-0.03,2.57,0.03,5.14,0.37,7.69c0.37,0.33,0.27,0.79,0.34,1.2
		c0.02,0.14,0.08,0.42-0.13,0.41c-0.24-0.01-0.4-0.24-0.43-0.51c-3.35-4.79-7.22-9.02-12.41-11.89c-6.74-3.8-19.75-7.15-22.17,3.15
		c-0.34,1.15-0.34,1.15-1.6,0.93c-2.97-0.53-5.96,1.36-6.78,4.28c-0.29,1.04-0.31,1.06-1.25,0.42c-1.08-0.73-2.28-1.16-3.53-1.49
		c-3.93-0.79-8.47-1.75-12.21,0.1C12.73,57.1,5.22,60.54,2.07,65.56c-1.16,2.66-2.57,5.74-1.89,8.69c1.02,2.91,2.2,5.77,4.25,8.14
		c2,1.8,0.35,2.83,1.57,4.08c0.56,0.46,0.46,0.81,0.19,1.45c-1.71,3.41,0.14,6.68,3.02,8.76c-3.38,1.92-3.57,6.41-1.14,9.14
		c1.49,1.81,0.54,2.53-1.33,3.26c-0.84,0.3-0.58,1.44,0.3,1.36c1.34-0.02,2.67,0.33,4.02-0.02c0.55-0.14,1.3-0.37,1.69-0.12
		c1.86,1.57,5-0.92,4.65,0.7c-1.22,4.33-1.3,8.75-1.2,13.19c0.07,0.84-0.1,2.46,0.94,2.69c0.48-0.04,0.59-0.42,0.59-0.84
		c-0.29-2.96-0.27-5.91-0.04-8.86c0.2-2.96,0.7-5.86,1.71-8.65c0.24-0.65,0.23-1.24,0.2-1.88c-0.65-0.15-1.35-0.31-1.44,0.67
		c0.04,0.81-1.76,2.72-2.47,2.21c-0.67-0.58,1.34-1.5,0.55-2.16c-1.15-1.05-1.82,2.15-6.67,1.9c2.85-4.04-4.92-5.49-0.4-11.47
		c0.49-0.7,0.78-0.97,1.61-0.54c1.27,0.66,2.67,0.89,4.11,0.89c0.64,0,0.69,0.26,0.46,0.85c-1.3,3.33,0.7,6.67,4.28,7.23
		c3-0.47,5.32,2.04,8.25,2.18c4.09,0.63,7.81,2.48,11.58,4.07c2.18,0.96,4.64,0.88,6.57-0.53c3.93-1.9,7.69-4.3,10.04-8.04
		c2.07,5.7,3.03,11.9,2.93,18c-0.02,0.57-0.15,1.14-0.14,1.71c0.66,1.49,1.66-0.23,1.52-1.18c0.31-7.64-1.82-14.98-3.73-22.29
		c-1-2.56,1.3-4.72,1.72-7.25c1.72-5.96-3.83-5.64-3.58-9.19c0.85-4.3-5.18-9.51-2.86-9.54c4.31-0.73,9.55-6.68,6.73-10.99
		c-0.18-0.28-0.25-0.56-0.07-0.89c2.82-6.34,14.61,5.32,16.1,8.96c0.51,1.33,5.67,8.84,2.58,8.86c-1.64,0.3-1.96,0.79-1.44,2.36
		c0.74,2.68,3.44,4.13,4.17,6.76c0.64,3.45,3.1,6.15,4.37,9.37c0.21,0.52,0.44,1,1.08,1.26c2.84,1.47-4.23,2.03-1.4,4.26
		c0.55,0.43,1.21,0.72,1.84,1.03c0.7,0.34,0.74,0.34,0.2,1.09c-0.27,0.37-0.22,0.73-0.17,1.1c0.93,6.19,0.7,12.43,0.87,18.66
		c0.05,0.71-0.09,2.04,0.91,1.98c0.47-0.08,0.83-0.42,0.66-0.97c-0.81-6.79,0.15-13.74-1.16-20.53c-0.13-0.76,0.17-0.67,0.72-0.52
		c6.25,1.97,12.83,2.33,19.28,3.24c3.71,0.5,7.27,0.05,10.72-1.41c0.83-0.35,1.68-0.68,2.6-0.66c1.45,0.04,2.78-0.41,4.09-0.93
		c1.27-0.21,3.57-2.19,4.5-1.07c4.94,4.6,7.83,11,8.15,17.73c0.25,1.71,0.69,3.39,0.63,5.14c-0.02,0.65-0.04,1.52,0.78,1.47
		C140.37,129.28,138.68,122.78,138.75,121.45z M6.7,83.46c-1.26-2.36-3.1-4.33-4.24-6.8c-2.25-4.96,0-10.8,4.15-13.94
		c4.45-2.97,11.14-8.61,16.57-8.32c3.59,0.31,7.44,0.55,10.4,2.85c0.43,0.31,0.85,0.66,0.69,1.26c-0.12,0.44,0.5,1.17-0.29,1.29
		c-0.86,0.13-1.62,1.27-2.63,0.29c-1.56-1.12-2.74-3.09-4.7-1.53c-0.59,0.34-0.98,1.09-1.93,0.56c-0.51-0.29-0.98,0.35-1.09,0.84
		c-0.39,1.63-1.94,2.85-1.64,4.73c0.05,0.34-0.38,0.47-0.63,0.65c-4.63,3.5-8.23,8.42-10.54,13.68c-0.11,0.23-0.29,0.48-0.28,0.71
		c0.11,2.28-2.18,2.57-3.22,3.9C7.11,83.88,6.81,83.67,6.7,83.46z M26.73,60.51c-0.15-0.15-0.4-0.49-0.38-0.46l0,0
		c-0.13-0.16,0.11-0.34,0.22-0.14l0,0c0.53,0.45,1.12,0.88,1.5,1.16l0,0c0.2,0.19,0.44,0.28,0.62,0.47
		c-0.35,0.16-0.63,0.12-0.92-0.1l0,0C27.37,61.16,26.98,60.8,26.73,60.51z M26.87,62.27c-1.2,0.62-2.31,1.2-3.77,1.96
		c0.5-1.21,0.82-2.09,1.23-2.93C24.97,59.45,26.1,61.66,26.87,62.27z M27.97,59.83c-1.05-0.56-0.36-1.24,0.47-0.79
		c0.7,0.42,1.27,1.01,1.76,1.66c0.2,0.26-0.13,0.27-0.23,0.36C29.19,61.18,28.63,60.18,27.97,59.83z M13.25,80.87
		c0.72-0.52,1.25-1.29,2.13-1.59c-0.04,3.38,1.2,6.54,2.16,9.71c0.36,0.32-0.09,0.74-0.3,0.27c-1.18-0.45-2.36-1-3.54-1.42
		c-1.39-0.19-2.67-0.54-3.78-1.5c-0.66-0.67-1.84,0.02-2.54-0.52c-0.2-0.29,0.08-0.43,0.27-0.58C9.51,83.77,11.33,82.26,13.25,80.87
		z M55.04,86.92c3.37,2.36,2.29,6.39,0.56,9.32c-1.58,3.49,1.28,5.35-2.59,9.42c-1.68,1.83-3.86,2.96-5.92,4.26
		c-2.13,1.27-4.36,2.58-6.82,1.36c-4.51-2.03-9.12-3.74-13.98-4.67c-2.23-0.65-4.14-2.09-6.58-1.85c-1.37,0-2.27-0.57-2.88-1.83
		c-0.68-1.05-0.78-4.76,0.86-4.56c2.21,0.12,4.33-0.34,6.45-0.88c5.08-0.11,10.05-0.81,14.65-3.17C44.31,92.26,49,86.98,55.04,86.92
		z M52.74,79.77c0.67,1.84,2.1,5.79-0.74,6.32c-2.79,0.72-5.2,2.13-7.55,3.7C38,94.1,30.45,96.5,22.66,96.11
		c-0.38,0.01-0.88-0.1-1.13,0.1c-1.38,1.04-2.95,0.63-4.45,0.73c-2.55,0.14-4.99-0.21-7.21-1.6c-2.61-1.63-3.51-3.86-2.6-6.52
		c0.58-1.7,1.15-1.97,2.65-1.08c2.73,1.39,5.8,1.99,8.34,3.78c0.31,0.23,0.69,0.45,1.06,0.17c0.87-0.79-0.14-1.96-0.36-2.85
		c-0.92-2.46-1.64-4.98-2.28-7.53c-0.2-0.77,0.24-1.68-0.53-2.36c-0.17-0.15,0.24-0.5,0.49-0.71c2.19-1.88,4.86-2.78,7.55-3.61
		c6.59-2.23,13.5-3,20.29-4.27C46.53,70.21,52.05,77.74,52.74,79.77z M58.06,66.43c-0.65,3.38-6.66,9.19-9.61,5.22
		c-0.88-1.14-1.92-2.21-3.5-2.5c-7.7,0.55-15.27,2.63-22.74,4.58c-3.65,1.07-6.71,3.44-9.74,5.65c-0.07-0.08-0.14-0.15-0.2-0.22
		c0.56-1.36,0.82-2.98,1.74-4c4.3-6.38,9.94-11.04,17.39-13.15c7.39-2.05,17.71-4.23,24.42,0.36
		C57.16,63.31,58.68,64.61,58.06,66.43z M81.6,89.88c0.17-0.3,0.44,0.25,0.25,0.43C81.66,90.22,81.58,90.08,81.6,89.88z
		 M82.69,92.43c-0.31-0.68-0.79-1.3-0.82-2.09c1.05-0.25,1.43,0.83,2.19,1.15c1.09,0.45,1.48,1.26,1.32,2.42
		c-0.17,1.28,0.34,2.52,0.28,4.18C84.91,95.81,83.52,94.27,82.69,92.43z M83.75,89.6c-2.52-1.87-4.85-4.12-6.36-6.89
		c-1.42-2.5,5.02-0.01,6.39-3.42c1.34-3.1,5-2.44,3.88-5.03c-0.19-0.57-1.07-1.36-0.07-1.69c1.55-0.62,1.62-0.92,0.55-2.06
		c-1.46-1.54-2.95-3.05-4.46-4.54c-0.32-0.32-0.72-0.96-1.24-0.41c-0.84,0.88,2.69,3.58,3.32,4.38c1.1,1.12,1.1,1.12-0.38,1.74
		c-2.26,0.82,1.07,1.95,0.98,3.13c-0.03,0.73-0.97,0.92-1.47,1.35c-1.51,1.01-2.17,2.98-3.8,3.71c-1.18,0.22-1.41,0.12-1.51-1.14
		c-0.08-0.99-0.36-1.92-0.83-2.75c-3.41-7.29-7.44-12.88-14.92-16.42c-1.5-0.78-3.14-0.53-4.73-0.58c-1.88,0.08,0.03,3.84-2.94,1.94
		c-7.83-5.56-20.48,0.55-20.18-3.34c-0.45-3.41,2.71-6.6,6.18-5.35c1.72,0.49,1.96,0.41,2.16-1.28c1.88-10.11,14.14-6.47,20.35-3.06
		c5.13,2.83,8.88,7.07,12.19,11.83c1.73,2.48,2.81,5.11,3.51,8c0.32,1.08,2.3,8.45,3.59,7.62c1.14-0.46,0.1-1.32-0.16-1.9
		c-2.99-7.29-5.38-15.87-4.66-23.66c0.34-0.25,0.6,0.03,0.85,0.19c5.35,3.44,8.26,8.62,13.67,12.43c-1.12,0.25-2.6-0.3-2.97,0.73
		c-0.24,1.31,1.24,2.17,1.89,3.15c0.98,0.68,3.37,4.38,4.47,3.37c0.57-0.68-0.46-1.23-0.88-1.64c-1.22-0.97-2.19-2.17-3.2-3.33
		c-0.66-0.55-0.24-1.1,0.51-0.87c1.8,0.08,3.6,0.21,5.4,0.25c1.6,0.03,1.78-0.31,1.15-1.82c-0.06-0.63-3.12-6.11-1.25-4.96
		c0.73,0.83,12.97,8,11.85,4.73c-1.51-1.51,4.31-15.1,5.41-17.71c1.49,4.51,2.29,4.56,4.34,0.41c0.87-1.47,1.89,1.48,2.16,2.13
		c2.79,9.85,8.6,20.38,5.01,30.72c-0.09,0.6-0.7,1.26-0.19,1.81c0.41,0.39,0.8,0.06,1.22-0.1c0.85-0.34,1.79-0.11,2.67-0.24
		c1.83-0.19,0.1,2.82-0.2,3.61c-0.52,1.35-3.04,3.75-0.03,3.63c0.74,0.15,3.45-0.4,2.29,1.04c-7.22,9.03-7.52,3.24-18.41,6.09
		c-2.77,0.16-2.23,2.87-5.14,2.71C100.77,96.28,91.29,94.96,83.75,89.6z M97.27,104.49c-0.55,0.62-1,1.93-1.95,1.86
		c-3.35-0.69-7.09-1.21-9.95-3.12c-0.06-0.38,0.34-0.46,0.61-0.62c1.69-0.99,1.76-1.12,1.42-3.07c-0.18-2.19-1.39-4.26-0.76-6.47
		c2.04,1.35,6.66,1.61,7.45,3.73C94.57,98.58,97.79,103.27,97.27,104.49z M118.9,105.71c-1.43,0.19-2.43,1.31-3.84,1.64
		c-2.21,0.52-4.37,0.82-6.65,0.52c-3.28-0.4-6.74-0.16-9.82-1.57c-0.45-0.19-0.62-0.44-0.31-0.86c1.69-2.49-2.41-6.09-2.68-8.78
		c-0.28-0.24-0.08-0.62,0.23-0.23c3.65,0.3,16.47,2.85,18.06-0.98c0.23-1,3.3-1.06,4.22-1.14c0.14,1.06-0.4,1.96-0.79,2.86
		c-1.29,2.77,1.23,5.16,1.83,7.77C119.23,105.26,119.37,105.65,118.9,105.71z M128.88,102.93c-1.27,0.33-8.16,4.23-8.31,2.16
		c-0.31-2.76-3.43-5.07-1.81-7.9c1.52-2.23-0.89-3.66,2.92-3.37c2.63-0.22,4.18,0.69,6.57,0.35c1.18-0.18,2.28,0.19,3.4,0.42
		c1.23,0.37-0.26,1.87-0.49,2.56C128.13,101.27,130.51,102.29,128.88,102.93z"/>
	<path class="st0" d="M51.21,27.03c0.74,0.6,1.7,0.91,2.89,0.91c0.76,0,1.55-0.18,2.35-0.55c0.94-0.43,1.41-0.94,1.41-1.53
		c0-0.19-0.07-0.35-0.22-0.49c-0.14-0.14-0.31-0.21-0.49-0.21c-0.21,0-0.4,0.14-0.58,0.43c-0.18,0.29-0.58,0.52-1.2,0.69
		c-0.49,0.14-0.92,0.21-1.28,0.21c-0.58,0-1.1-0.11-1.53-0.34c-0.44-0.22-0.81-0.56-1.1-1l3.01-1.45c0.85-0.41,1.41-0.71,1.67-0.9
		c0.59-0.44,0.89-0.92,0.89-1.46c0-0.76-0.34-1.33-1.02-1.7c-0.55-0.3-1.27-0.45-2.14-0.45c-1.2,0-2.17,0.51-2.89,1.54
		C50.33,21.67,50,22.84,50,24.23C50,25.43,50.4,26.37,51.21,27.03z M52.28,21.4c0.43-0.5,0.96-0.76,1.6-0.76
		c0.82,0,1.45,0.21,1.9,0.64c-0.41,0.35-1.08,0.76-2.04,1.23l-2.42,1.17C51.54,22.66,51.86,21.9,52.28,21.4z"/>
	<path class="st0" d="M26.66,37.48c0,0.13,0,0.25,0,0.37c0,1.72,0.25,2.81,0.76,3.29c0.44,0.42,1.43,0.64,2.95,0.65
		c-0.97,4.03-2.48,10.31-2.53,10.65l7.49-7.38c0.16,0.09,0.36,0.17,0.62,0.22c0.47,0.1,1.06,0.14,1.76,0.14
		c1.19,0,2.11-0.25,2.74-0.75c0.52-0.41,0.9-1.05,1.14-1.92c0.12-0.45,0.21-0.99,0.26-1.61c1.46,0.11,2.95,0.17,4.48,0.17
		c14.91,0,26.99-5.45,26.99-12.17c0-3.38-3.05-6.43-7.97-8.63c-0.05-0.37-0.14-0.68-0.28-0.9c-0.21-0.33-0.53-0.49-0.95-0.49
		c-0.54,0-1.06,0.1-1.56,0.29c-4.52-1.53-10.13-2.44-16.22-2.44c-0.08,0-0.16,0-0.24,0c-0.14-0.4-0.37-0.6-0.71-0.6
		c-0.22,0-0.41,0.07-0.56,0.22c-0.12,0.11-0.19,0.25-0.22,0.41c-1.4,0.04-2.77,0.13-4.1,0.26c0.01-0.64,0.02-1.24,0.02-1.78
		c0-0.53-0.26-0.8-0.78-0.8c-0.52,0-0.77,0.27-0.77,0.8c0,0.59-0.01,1.25-0.02,1.96c-1.66,0.21-3.26,0.49-4.77,0.84l-0.31-1.67
		c-0.15-0.59-0.44-0.88-0.85-0.88c-0.31,0-1.08,1.01-2.33,3.04c-0.12,0.2-0.23,0.38-0.35,0.58c-6.67,2.22-11,5.78-11,9.81
		C19.33,32.37,22.12,35.3,26.66,37.48z M29.72,40.16c-0.7,0-1.11-0.07-1.24-0.22c-0.15-0.19-0.23-0.78-0.25-1.76
		c0.87,0.36,1.79,0.69,2.76,0.99c-0.06,0.27-0.14,0.6-0.24,0.98C30.32,40.15,29.97,40.16,29.72,40.16z M40.15,42.5
		c-0.38,0.98-1.08,1.47-2.09,1.49c-0.54,0.01-1.03-0.03-1.47-0.12c-0.02,0-0.03-0.01-0.04-0.01l2.98-2.93
		c0.31,0.04,0.63,0.06,0.94,0.1C40.4,41.63,40.29,42.12,40.15,42.5z M40.56,37.18c-0.06,0.55-0.32,1.11-0.77,1.67
		c-0.5,0.61-1.02,0.91-1.55,0.91c-0.58,0-1.01-0.19-1.3-0.59c-0.29-0.39-0.43-0.97-0.43-1.75c0-0.97,0.24-1.77,0.73-2.4
		c0.55-0.7,1.32-1.05,2.32-1.05c0.24,0,0.48,0.04,0.7,0.12c0.23,0.08,0.44,0.2,0.65,0.37C40.79,35.69,40.67,36.6,40.56,37.18z
		 M49.18,37.12c-0.03,0.76-0.26,1.37-0.71,1.82c-0.39,0.41-0.87,0.61-1.41,0.61c-0.47,0-0.88-0.18-1.22-0.54
		c-0.42-0.43-0.62-1.04-0.62-1.81c0-0.77,0.17-1.46,0.51-2.07c0.43-0.75,1.03-1.13,1.81-1.12C48.71,34.01,49.25,35.05,49.18,37.12z
		 M60.86,20.5c-0.04,0.04-0.08,0.07-0.12,0.11c0-0.05,0-0.09-0.01-0.14C60.78,20.48,60.82,20.49,60.86,20.5z M33.27,21.74
		c-1.29,0.24-2.26,0.44-2.9,0.6l1.06-1.73c0.49-0.16,1-0.3,1.51-0.44L33.27,21.74z M32.63,18.65L32.63,18.65
		C32.63,18.66,32.62,18.66,32.63,18.65L32.63,18.65z M27.88,21.95c0.4-0.18,0.81-0.35,1.24-0.52c-0.25,0.44-0.49,0.87-0.7,1.28
		c-0.52,0.12-0.77,0.4-0.77,0.83c0,0.18,0.04,0.34,0.13,0.48c-0.79,1.69-1.19,2.67-1.19,2.93c0,0.23,0.08,0.42,0.25,0.58
		c0.17,0.15,0.35,0.23,0.56,0.23c0.29,0,0.52-0.15,0.69-0.45c0.64-1.35,1.09-2.37,1.35-3.07l2.1-0.44c0.87-0.19,1.57-0.33,2.11-0.4
		c0.21,1.2,0.38,2.04,0.51,2.52c0.36,1.26,0.78,1.89,1.26,1.89c0.21,0,0.4-0.08,0.56-0.23c0.16-0.15,0.24-0.35,0.24-0.58
		c0-0.14-0.08-0.43-0.23-0.87l-0.45-1.27l-1.07-5.08c1.42-0.33,2.91-0.59,4.44-0.79c-0.02,0.84-0.03,1.6-0.03,2.27
		c0,0.65-0.03,1.62-0.09,2.91c-0.06,1.3-0.09,2.27-0.09,2.91c0,0.55,0.26,0.82,0.77,0.82c0.46,0,0.72-0.27,0.77-0.8
		c0.04-0.82,0.06-1.44,0.06-1.86l0.12-3.98c0-0.73,0.01-1.55,0.03-2.45c1.36-0.14,2.76-0.23,4.17-0.27c0.01,0.27,0.02,0.5,0.02,0.69
		L43,19.1c-0.22,0-0.4,0.08-0.54,0.23c-0.14,0.16-0.21,0.35-0.21,0.59c0,0.46,0.23,0.73,0.7,0.79c0.78,0.07,1.37,0.12,1.75,0.14
		l0.16,4.68c0,0.2-0.01,0.51-0.02,0.91c-0.02,0.41-0.02,0.71-0.02,0.91c0,0.21,0.08,0.38,0.23,0.52c0.15,0.14,0.34,0.21,0.55,0.21
		c0.57,0,0.85-0.59,0.83-1.76l-0.01-0.41l-0.01-0.35l-0.15-4.74c0.59-0.08,0.95-0.12,1.07-0.12c0.11,0,0.24,0.01,0.39,0.02
		c0.15,0.01,0.28,0.02,0.39,0.02c0.23,0,0.41-0.08,0.56-0.23c0.14-0.15,0.22-0.35,0.22-0.58c0-0.4-0.16-0.65-0.48-0.75
		c-0.17-0.05-0.53-0.08-1.07-0.08c-0.09,0-0.47,0.04-1.12,0.13l0.01-0.5l0.01-0.21c0.03,0,0.07,0,0.1,0c4.63,0,9.06,0.54,12.95,1.54
		c0,0.01,0,0.02,0,0.03c0,0.18-0.01,0.44-0.02,0.79c-0.01,0.35-0.02,0.62-0.02,0.79v5.63c0,0.54,0.23,0.81,0.69,0.81
		c0.52,0,0.78-0.27,0.78-0.81l-0.02-4.39c0.31-0.7,0.7-1.22,1.17-1.57c0.17-0.12,0.36-0.23,0.56-0.32c0.5,0.18,1,0.36,1.47,0.56
		c0.01,0.12,0.01,0.22,0.01,0.28c0,0.53,0.23,0.79,0.68,0.79c0.33,0,0.56-0.16,0.68-0.47c4.14,1.97,6.5,4.49,6.5,6.96
		c0,2.57-2.55,5.19-6.99,7.2c-4.08,1.84-9.31,2.99-14.99,3.32c0.56-0.82,0.85-1.81,0.87-2.96c0.02-1.11-0.19-2.06-0.62-2.85
		c-0.54-0.98-1.34-1.47-2.39-1.47c-1.32,0-2.34,0.54-3.08,1.63c-0.63,0.92-0.93,1.98-0.9,3.19c0.03,1.02,0.29,1.86,0.77,2.54
		c-0.83-0.03-1.66-0.07-2.48-0.14l0.15-2.16c0.02-0.27,0.09-0.77,0.21-1.51c0.11-0.64,0.17-1.14,0.17-1.52
		c0-0.62-0.28-0.94-0.84-0.95c-0.17-0.26-0.43-0.45-0.76-0.58c-0.33-0.13-0.74-0.19-1.23-0.19c-1.45,0-2.6,0.45-3.44,1.36
		c-0.82,0.88-1.22,2.04-1.22,3.49c0,1.05,0.3,1.91,0.9,2.57c0.39,0.43,0.86,0.72,1.4,0.87l-6.7,6.6c0.39-1.62,0.86-3.58,1.4-5.8
		c0.86-0.02,1.47-0.07,1.8-0.14c0.45-0.09,0.67-0.36,0.67-0.81c0-0.56-0.28-0.83-0.84-0.83c-0.1,0-0.25,0.02-0.46,0.05
		c-0.21,0.03-0.36,0.05-0.47,0.05c-0.09,0-0.2,0-0.31,0c0.05-0.19,0.09-0.38,0.14-0.58l0.34-1.41l-1.39-0.43
		c-1.14-0.36-2.21-0.75-3.19-1.18c0.01-0.22,0.02-0.45,0.03-0.68l3.65-0.34l1.88-0.17c0.48-0.06,0.73-0.33,0.73-0.82
		c0-0.25-0.08-0.45-0.24-0.6c-0.16-0.15-0.35-0.22-0.58-0.22c-0.23,0-0.85,0.05-1.87,0.16l-3.46,0.34c0.09-1.3,0.13-2.32,0.13-3.06
		c0-0.21-0.02-0.49-0.07-0.83c0.59-0.17,1.14-0.29,1.65-0.37c0.51-0.08,0.98-0.12,1.41-0.12c0.83,0,1.68,0.13,2.57,0.38
		c0.09,0.03,0.17,0.04,0.24,0.04c0.23,0,0.42-0.09,0.57-0.27c0.14-0.17,0.21-0.36,0.21-0.57c0-0.37-0.18-0.63-0.53-0.77
		c-0.76-0.31-1.78-0.46-3.06-0.46c-0.49,0-1.02,0.04-1.58,0.13c-0.56,0.09-1.16,0.21-1.79,0.38c-0.16-0.15-0.35-0.23-0.57-0.23
		c-0.53,0-0.79,0.32-0.79,0.95c0,0.2,0.03,0.49,0.08,0.87c0.05,0.38,0.08,0.67,0.08,0.87c0,0.74-0.05,1.88-0.16,3.42
		c-0.1,0.14-0.15,0.31-0.15,0.49c0,0.14,0.03,0.27,0.09,0.39c-0.01,0.13-0.01,0.24-0.02,0.36c-3.69-1.9-5.84-4.28-5.84-6.63
		C20.88,26.58,23.43,23.95,27.88,21.95z"/>
</g>
</svg>
